<svg width="142" height="43" viewBox="0 0 142 43" fill="none" xmlns="http://www.w3.org/2000/svg">
<path fill-rule="evenodd" clip-rule="evenodd" d="M31.6358 3.35975C32.0683 3.79213 32.4114 4.30547 32.6454 4.87047C32.8795 5.43547 33 6.04104 33 6.65261C33 7.26418 32.8795 7.86975 32.6454 8.43475C32.4114 8.99975 32.0683 9.5131 31.6358 9.94547L10.781 30.8003L2 32.9955L4.19524 24.3375L25.0588 3.36853C25.8812 2.54218 26.9842 2.05526 28.1489 2.00442C29.3136 1.95359 30.4548 2.34256 31.346 3.09412L31.6358 3.35975Z" stroke="white" stroke-width="4" stroke-linecap="round" stroke-linejoin="round"/>
<path d="M15.1714 32.9955H32.7333" stroke="white" stroke-width="4" stroke-linecap="round" stroke-linejoin="round"/>
<path d="M28.343 8.84766L30.5383 11.0429" stroke="white" stroke-width="4" stroke-linecap="round" stroke-linejoin="round"/>
<path d="M52.592 19.44V22.848H58.088V26.016H52.592V29.712H58.808V33H48.488V16.152H58.808V19.44H52.592ZM71.7924 22.872V26.28H61.2324V22.872H71.7924ZM89.9863 16.152V33H85.8823V26.064H79.4983V33H75.3943V16.152H79.4983V22.752H85.8823V16.152H89.9863ZM92.1329 26.28C92.1329 24.904 92.3889 23.696 92.9009 22.656C93.4289 21.616 94.1409 20.816 95.0369 20.256C95.9329 19.696 96.9329 19.416 98.0369 19.416C98.9809 19.416 99.8049 19.608 100.509 19.992C101.229 20.376 101.781 20.88 102.165 21.504V19.608H106.269V33H102.165V31.104C101.765 31.728 101.205 32.232 100.485 32.616C99.7809 33 98.9569 33.192 98.0129 33.192C96.9249 33.192 95.9329 32.912 95.0369 32.352C94.1409 31.776 93.4289 30.968 92.9009 29.928C92.3889 28.872 92.1329 27.656 92.1329 26.28ZM102.165 26.304C102.165 25.28 101.877 24.472 101.301 23.88C100.741 23.288 100.053 22.992 99.2369 22.992C98.4209 22.992 97.7249 23.288 97.1489 23.88C96.5889 24.456 96.3089 25.256 96.3089 26.28C96.3089 27.304 96.5889 28.12 97.1489 28.728C97.7249 29.32 98.4209 29.616 99.2369 29.616C100.053 29.616 100.741 29.32 101.301 28.728C101.877 28.136 102.165 27.328 102.165 26.304ZM108.422 26.28C108.422 24.904 108.678 23.696 109.19 22.656C109.718 21.616 110.43 20.816 111.326 20.256C112.222 19.696 113.222 19.416 114.326 19.416C115.206 19.416 116.006 19.6 116.726 19.968C117.462 20.336 118.038 20.832 118.454 21.456V15.24H122.558V33H118.454V31.08C118.07 31.72 117.518 32.232 116.798 32.616C116.094 33 115.27 33.192 114.326 33.192C113.222 33.192 112.222 32.912 111.326 32.352C110.43 31.776 109.718 30.968 109.19 29.928C108.678 28.872 108.422 27.656 108.422 26.28ZM118.454 26.304C118.454 25.28 118.166 24.472 117.59 23.88C117.03 23.288 116.342 22.992 115.526 22.992C114.71 22.992 114.014 23.288 113.438 23.88C112.878 24.456 112.598 25.256 112.598 26.28C112.598 27.304 112.878 28.12 113.438 28.728C114.014 29.32 114.71 29.616 115.526 29.616C116.342 29.616 117.03 29.32 117.59 28.728C118.166 28.136 118.454 27.328 118.454 26.304ZM127.591 18.216C126.871 18.216 126.279 18.008 125.815 17.592C125.367 17.16 125.143 16.632 125.143 16.008C125.143 15.368 125.367 14.84 125.815 14.424C126.279 13.992 126.871 13.776 127.591 13.776C128.295 13.776 128.871 13.992 129.319 14.424C129.783 14.84 130.015 15.368 130.015 16.008C130.015 16.632 129.783 17.16 129.319 17.592C128.871 18.008 128.295 18.216 127.591 18.216ZM129.631 19.608V33H125.527V19.608H129.631ZM136.709 21.84C137.189 21.104 137.789 20.528 138.509 20.112C139.229 19.68 140.029 19.464 140.909 19.464V23.808H139.781C138.757 23.808 137.989 24.032 137.477 24.48C136.965 24.912 136.709 25.68 136.709 26.784V33H132.605V19.608H136.709V21.84Z" fill="white"/>
</svg>
